<svg xmlns="http://www.w3.org/2000/svg" viewBox="0 0 32 32" width="32" height="32">
  <!-- Background circle -->
  <circle cx="16" cy="16" r="15" fill="#FF385C" stroke="#E5E7EB" stroke-width="1"/>
  
  <!-- Pin icon (simplified) -->
  <path d="M16 6c-3.3 0-6 2.7-6 6 0 4.5 6 10 6 10s6-5.5 6-10c0-3.3-2.7-6-6-6zm0 8.5c-1.4 0-2.5-1.1-2.5-2.5s1.1-2.5 2.5-2.5 2.5 1.1 2.5 2.5-1.1 2.5-2.5 2.5z" fill="white"/>
  
  <!-- Building outline -->
  <rect x="8" y="20" width="16" height="8" fill="none" stroke="white" stroke-width="1.5" stroke-linecap="round"/>
  <line x1="12" y1="20" x2="12" y2="28" stroke="white" stroke-width="1"/>
  <line x1="20" y1="20" x2="20" y2="28" stroke="white" stroke-width="1"/>
  <line x1="8" y1="24" x2="24" y2="24" stroke="white" stroke-width="1"/>
</svg>
